<svg width="861" height="818" viewBox="0 0 861 818" fill="none" xmlns="http://www.w3.org/2000/svg">
    <g filter="url(#filter0_d_49_53)">
        <rect x="23.3757" y="98.084" width="724" height="676" rx="8" transform="rotate(-6.63402 23.3757 98.084)" fill="url(#paint0_linear_49_53)"/>
        <rect x="25.5934" y="99.8395" width="720" height="672" rx="6" transform="rotate(-6.63402 25.5934 99.8395)" stroke="#8E8E8E" stroke-width="4"/>
    </g>
    <rect x="15.5933" y="113.84" width="720" height="672" rx="6" transform="rotate(-6.63402 15.5933 113.84)" fill="url(#paint1_linear_49_53)" stroke="#8E8E8E" stroke-width="4"/>
    <rect x="6.21754" y="128.397" width="720" height="672" rx="6" transform="rotate(-6.63402 6.21754 128.397)" fill="url(#paint2_linear_49_53)" stroke="#8E8E8E" stroke-width="4"/>
    <mask id="path-5-outside-1_49_53" maskUnits="userSpaceOnUse" x="70.5169" y="91.3169" width="618.994" height="191.973" fill="black">
        <rect fill="white" x="70.5169" y="91.3169" width="618.994" height="191.973"/>
        <path d="M132.784 212.508L151.495 209.842L157.055 248.868L142.407 250.955L141.752 246.358C137.27 251.142 130.859 254.128 122.519 255.316C115.534 256.311 108.941 255.723 102.741 253.552C96.5404 251.381 91.3233 247.688 87.0894 242.473C82.9166 237.177 80.2615 230.537 79.124 222.553C78.0272 214.855 78.8342 207.758 81.5451 201.263C84.2459 194.696 88.5296 189.286 94.3962 185.032C100.263 180.778 107.188 178.082 115.171 176.945C122.157 175.95 128.597 176.232 134.492 177.792C140.387 179.352 145.502 182.078 149.839 185.969L138.103 200.077C132.25 195.239 125.795 193.322 118.739 194.327C112.252 195.252 107.333 197.989 103.981 202.539C100.691 207.008 99.528 212.628 100.493 219.4C101.468 226.243 104.032 231.223 108.185 234.34C112.338 237.457 117.195 238.62 122.755 237.828C128.101 237.066 132.353 235.006 135.51 231.647L132.784 212.508ZM197.38 228.286C200.16 227.89 202.492 227.158 204.376 226.089C206.332 225.011 208.216 223.433 210.029 221.357L222.199 230.968C217.604 238.023 209.854 242.327 198.948 243.881C192.176 244.846 186.041 244.411 180.544 242.576C175.046 240.741 170.546 237.746 167.045 233.59C163.615 229.424 161.489 224.455 160.666 218.681C159.854 212.978 160.518 207.684 162.658 202.797C164.788 197.839 168.094 193.732 172.575 190.475C177.128 187.208 182.433 185.143 188.492 184.28C194.123 183.478 199.423 183.923 204.391 185.615C209.421 187.225 213.646 190.078 217.065 194.173C220.475 198.196 222.616 203.273 223.49 209.403L183.239 223.21C186.109 227.529 190.823 229.221 197.38 228.286ZM190.656 198.699C187.163 199.197 184.469 200.708 182.574 203.232C180.669 205.685 179.864 208.964 180.157 213.067L203.025 205.118C201.967 202.796 200.338 201.065 198.139 199.924C195.93 198.711 193.436 198.303 190.656 198.699ZM258.674 235.371C251.546 236.387 245.727 235.362 241.217 232.295C236.769 229.147 234.057 224.152 233.082 217.309L224.673 158.289L244.988 155.394L253.244 213.345C253.549 215.483 254.317 217.047 255.549 218.035C256.852 219.013 258.501 219.36 260.497 219.075C262.137 218.842 263.618 218.267 264.942 217.351L267.976 232.519C265.053 233.953 261.952 234.904 258.674 235.371ZM326.959 165.533L335.216 223.484L315.863 226.241L314.98 220.04C313.176 222.697 310.864 224.845 308.043 226.483C305.222 228.121 302.136 229.179 298.786 229.656C291.302 230.723 284.999 229.366 279.879 225.587C274.83 221.797 271.676 215.483 270.417 206.644L265.801 174.247L286.115 171.353L290.259 200.435C290.879 204.783 292.15 207.838 294.074 209.6C295.998 211.363 298.528 212.02 301.664 211.574C304.872 211.117 307.316 209.641 308.997 207.147C310.739 204.571 311.28 200.967 310.62 196.334L306.644 168.428L326.959 165.533ZM370.64 197.71L365.52 204.657L367.547 218.878L347.232 221.772L335.928 142.437L356.243 139.543L362.169 181.135L380.032 157.972L404.089 154.544L383.567 182.777L414.378 212.205L389.786 215.709L370.64 197.71ZM438.678 209.725C433.831 210.415 428.979 210.561 424.122 210.162C419.255 209.692 415.269 208.769 412.164 207.393L416.278 192.625C419.149 193.889 422.473 194.761 426.251 195.241C430.018 195.65 433.684 195.6 437.248 195.092C440.526 194.625 442.797 193.974 444.06 193.14C445.384 192.224 445.955 191.124 445.772 189.841C445.589 188.558 444.607 187.789 442.825 187.534C441.105 187.197 438.391 187.038 434.685 187.057C429.97 187.147 425.907 186.963 422.497 186.503C419.157 186.033 416.133 184.719 413.426 182.559C410.718 180.399 409.044 177.074 408.404 172.584C407.876 168.877 408.514 165.441 410.317 162.275C412.111 159.037 414.993 156.299 418.965 154.061C422.998 151.741 427.973 150.159 433.889 149.316C438.095 148.717 442.325 148.551 446.582 148.817C450.838 149.083 454.467 149.802 457.471 150.975L453.342 165.636C447.803 163.516 442.04 162.882 436.053 163.735C432.845 164.192 430.549 164.919 429.163 165.917C427.768 166.843 427.157 167.912 427.329 169.124C427.522 170.478 428.479 171.323 430.2 171.66C431.91 171.925 434.695 172.074 438.554 172.106C443.432 172.138 447.505 172.395 450.773 172.874C454.041 173.354 456.994 174.679 459.63 176.849C462.328 178.937 463.991 182.191 464.621 186.61C465.139 190.246 464.501 193.682 462.708 196.919C460.904 200.085 457.945 202.798 453.831 205.057C449.788 207.305 444.737 208.862 438.678 209.725ZM525.163 115.475L536.466 194.81L517.114 197.568L516.291 191.794C513.153 196.823 507.806 199.875 500.251 200.952C494.976 201.704 489.992 201.177 485.298 199.373C480.595 197.498 476.635 194.462 473.419 190.266C470.274 186.059 468.275 180.962 467.422 174.975C466.569 168.987 467.07 163.571 468.925 158.724C470.841 153.797 473.801 149.812 477.803 146.769C481.806 143.726 486.445 141.828 491.72 141.077C498.634 140.092 504.264 141.326 508.611 144.779L504.848 118.37L525.163 115.475ZM502.227 184.198C505.72 183.7 508.434 182.077 510.37 179.328C512.295 176.509 512.948 172.925 512.329 168.577C511.719 164.3 510.101 161.112 507.475 159.014C504.92 156.905 501.861 156.104 498.297 156.612C494.733 157.12 491.983 158.748 490.047 161.497C488.112 164.245 487.448 167.758 488.058 172.035C488.677 176.383 490.305 179.642 492.942 181.812C495.568 183.91 498.663 184.705 502.227 184.198ZM601.476 126.421L609.733 184.371L590.38 187.129L589.557 181.355C586.419 186.384 581.037 189.442 573.41 190.528C568.135 191.28 563.151 190.754 558.458 188.95C553.825 187.064 549.901 184.023 546.685 179.827C543.54 175.621 541.541 170.524 540.688 164.536C539.835 158.548 540.336 153.132 542.191 148.286C544.107 143.358 547.031 139.378 550.963 136.345C554.965 133.302 559.604 131.405 564.879 130.653C571.722 129.678 577.388 130.907 581.877 134.34L581.161 129.315L601.476 126.421ZM575.386 173.774C578.95 173.266 581.7 171.638 583.636 168.89C585.561 166.07 586.214 162.486 585.595 158.138C584.986 153.861 583.368 150.673 580.741 148.575C578.115 146.476 575.02 145.681 571.456 146.189C567.892 146.696 565.142 148.325 563.207 151.073C561.271 153.822 560.608 157.334 561.217 161.611C561.837 165.959 563.465 169.218 566.101 171.388C568.727 173.487 571.822 174.282 575.386 173.774ZM675.819 115.828L682.567 163.194C684.101 173.957 682.326 182.428 677.243 188.607C672.17 194.857 664.144 198.764 653.167 200.328C647.465 201.141 642.027 201.261 636.855 200.689C631.683 200.117 627.172 198.832 623.324 196.835L628.676 181.563C631.302 183.153 634.473 184.228 638.19 184.79C641.988 185.412 645.633 185.475 649.126 184.977C654.472 184.215 658.224 182.481 660.384 179.773C662.544 177.065 663.293 173.395 662.633 168.761L662.359 166.837C659.089 171.957 653.676 175.056 646.12 176.132C640.988 176.864 636.085 176.399 631.412 174.737C626.729 173.004 622.805 170.218 619.639 166.378C616.464 162.467 614.48 157.731 613.688 152.172C612.906 146.683 613.498 141.653 615.465 137.082C617.422 132.44 620.412 128.668 624.435 125.768C628.448 122.796 633.02 120.944 638.153 120.213C646.421 119.035 652.861 120.845 657.472 125.642L656.466 118.586L675.819 115.828ZM648.631 159.302C652.266 158.784 655.103 157.253 657.14 154.708C659.249 152.153 660.054 149.129 659.557 145.636C659.059 142.143 657.482 139.495 654.825 137.692C652.158 135.818 648.971 135.144 645.264 135.673C641.558 136.201 638.65 137.742 636.541 140.297C634.494 142.771 633.719 145.754 634.217 149.247C634.714 152.739 636.332 155.418 639.071 157.282C641.809 159.147 644.996 159.82 648.631 159.302Z"/>
    </mask>
    <path d="M132.784 212.508L151.495 209.842L157.055 248.868L142.407 250.955L141.752 246.358C137.27 251.142 130.859 254.128 122.519 255.316C115.534 256.311 108.941 255.723 102.741 253.552C96.5404 251.381 91.3233 247.688 87.0894 242.473C82.9166 237.177 80.2615 230.537 79.124 222.553C78.0272 214.855 78.8342 207.758 81.5451 201.263C84.2459 194.696 88.5296 189.286 94.3962 185.032C100.263 180.778 107.188 178.082 115.171 176.945C122.157 175.95 128.597 176.232 134.492 177.792C140.387 179.352 145.502 182.078 149.839 185.969L138.103 200.077C132.25 195.239 125.795 193.322 118.739 194.327C112.252 195.252 107.333 197.989 103.981 202.539C100.691 207.008 99.528 212.628 100.493 219.4C101.468 226.243 104.032 231.223 108.185 234.34C112.338 237.457 117.195 238.62 122.755 237.828C128.101 237.066 132.353 235.006 135.51 231.647L132.784 212.508ZM197.38 228.286C200.16 227.89 202.492 227.158 204.376 226.089C206.332 225.011 208.216 223.433 210.029 221.357L222.199 230.968C217.604 238.023 209.854 242.327 198.948 243.881C192.176 244.846 186.041 244.411 180.544 242.576C175.046 240.741 170.546 237.746 167.045 233.59C163.615 229.424 161.489 224.455 160.666 218.681C159.854 212.978 160.518 207.684 162.658 202.797C164.788 197.839 168.094 193.732 172.575 190.475C177.128 187.208 182.433 185.143 188.492 184.28C194.123 183.478 199.423 183.923 204.391 185.615C209.421 187.225 213.646 190.078 217.065 194.173C220.475 198.196 222.616 203.273 223.49 209.403L183.239 223.21C186.109 227.529 190.823 229.221 197.38 228.286ZM190.656 198.699C187.163 199.197 184.469 200.708 182.574 203.232C180.669 205.685 179.864 208.964 180.157 213.067L203.025 205.118C201.967 202.796 200.338 201.065 198.139 199.924C195.93 198.711 193.436 198.303 190.656 198.699ZM258.674 235.371C251.546 236.387 245.727 235.362 241.217 232.295C236.769 229.147 234.057 224.152 233.082 217.309L224.673 158.289L244.988 155.394L253.244 213.345C253.549 215.483 254.317 217.047 255.549 218.035C256.852 219.013 258.501 219.36 260.497 219.075C262.137 218.842 263.618 218.267 264.942 217.351L267.976 232.519C265.053 233.953 261.952 234.904 258.674 235.371ZM326.959 165.533L335.216 223.484L315.863 226.241L314.98 220.04C313.176 222.697 310.864 224.845 308.043 226.483C305.222 228.121 302.136 229.179 298.786 229.656C291.302 230.723 284.999 229.366 279.879 225.587C274.83 221.797 271.676 215.483 270.417 206.644L265.801 174.247L286.115 171.353L290.259 200.435C290.879 204.783 292.15 207.838 294.074 209.6C295.998 211.363 298.528 212.02 301.664 211.574C304.872 211.117 307.316 209.641 308.997 207.147C310.739 204.571 311.28 200.967 310.62 196.334L306.644 168.428L326.959 165.533ZM370.64 197.71L365.52 204.657L367.547 218.878L347.232 221.772L335.928 142.437L356.243 139.543L362.169 181.135L380.032 157.972L404.089 154.544L383.567 182.777L414.378 212.205L389.786 215.709L370.64 197.71ZM438.678 209.725C433.831 210.415 428.979 210.561 424.122 210.162C419.255 209.692 415.269 208.769 412.164 207.393L416.278 192.625C419.149 193.889 422.473 194.761 426.251 195.241C430.018 195.65 433.684 195.6 437.248 195.092C440.526 194.625 442.797 193.974 444.06 193.14C445.384 192.224 445.955 191.124 445.772 189.841C445.589 188.558 444.607 187.789 442.825 187.534C441.105 187.197 438.391 187.038 434.685 187.057C429.97 187.147 425.907 186.963 422.497 186.503C419.157 186.033 416.133 184.719 413.426 182.559C410.718 180.399 409.044 177.074 408.404 172.584C407.876 168.877 408.514 165.441 410.317 162.275C412.111 159.037 414.993 156.299 418.965 154.061C422.998 151.741 427.973 150.159 433.889 149.316C438.095 148.717 442.325 148.551 446.582 148.817C450.838 149.083 454.467 149.802 457.471 150.975L453.342 165.636C447.803 163.516 442.04 162.882 436.053 163.735C432.845 164.192 430.549 164.919 429.163 165.917C427.768 166.843 427.157 167.912 427.329 169.124C427.522 170.478 428.479 171.323 430.2 171.66C431.91 171.925 434.695 172.074 438.554 172.106C443.432 172.138 447.505 172.395 450.773 172.874C454.041 173.354 456.994 174.679 459.63 176.849C462.328 178.937 463.991 182.191 464.621 186.61C465.139 190.246 464.501 193.682 462.708 196.919C460.904 200.085 457.945 202.798 453.831 205.057C449.788 207.305 444.737 208.862 438.678 209.725ZM525.163 115.475L536.466 194.81L517.114 197.568L516.291 191.794C513.153 196.823 507.806 199.875 500.251 200.952C494.976 201.704 489.992 201.177 485.298 199.373C480.595 197.498 476.635 194.462 473.419 190.266C470.274 186.059 468.275 180.962 467.422 174.975C466.569 168.987 467.07 163.571 468.925 158.724C470.841 153.797 473.801 149.812 477.803 146.769C481.806 143.726 486.445 141.828 491.72 141.077C498.634 140.092 504.264 141.326 508.611 144.779L504.848 118.37L525.163 115.475ZM502.227 184.198C505.72 183.7 508.434 182.077 510.37 179.328C512.295 176.509 512.948 172.925 512.329 168.577C511.719 164.3 510.101 161.112 507.475 159.014C504.92 156.905 501.861 156.104 498.297 156.612C494.733 157.12 491.983 158.748 490.047 161.497C488.112 164.245 487.448 167.758 488.058 172.035C488.677 176.383 490.305 179.642 492.942 181.812C495.568 183.91 498.663 184.705 502.227 184.198ZM601.476 126.421L609.733 184.371L590.38 187.129L589.557 181.355C586.419 186.384 581.037 189.442 573.41 190.528C568.135 191.28 563.151 190.754 558.458 188.95C553.825 187.064 549.901 184.023 546.685 179.827C543.54 175.621 541.541 170.524 540.688 164.536C539.835 158.548 540.336 153.132 542.191 148.286C544.107 143.358 547.031 139.378 550.963 136.345C554.965 133.302 559.604 131.405 564.879 130.653C571.722 129.678 577.388 130.907 581.877 134.34L581.161 129.315L601.476 126.421ZM575.386 173.774C578.95 173.266 581.7 171.638 583.636 168.89C585.561 166.07 586.214 162.486 585.595 158.138C584.986 153.861 583.368 150.673 580.741 148.575C578.115 146.476 575.02 145.681 571.456 146.189C567.892 146.696 565.142 148.325 563.207 151.073C561.271 153.822 560.608 157.334 561.217 161.611C561.837 165.959 563.465 169.218 566.101 171.388C568.727 173.487 571.822 174.282 575.386 173.774ZM675.819 115.828L682.567 163.194C684.101 173.957 682.326 182.428 677.243 188.607C672.17 194.857 664.144 198.764 653.167 200.328C647.465 201.141 642.027 201.261 636.855 200.689C631.683 200.117 627.172 198.832 623.324 196.835L628.676 181.563C631.302 183.153 634.473 184.228 638.19 184.79C641.988 185.412 645.633 185.475 649.126 184.977C654.472 184.215 658.224 182.481 660.384 179.773C662.544 177.065 663.293 173.395 662.633 168.761L662.359 166.837C659.089 171.957 653.676 175.056 646.12 176.132C640.988 176.864 636.085 176.399 631.412 174.737C626.729 173.004 622.805 170.218 619.639 166.378C616.464 162.467 614.48 157.731 613.688 152.172C612.906 146.683 613.498 141.653 615.465 137.082C617.422 132.44 620.412 128.668 624.435 125.768C628.448 122.796 633.02 120.944 638.153 120.213C646.421 119.035 652.861 120.845 657.472 125.642L656.466 118.586L675.819 115.828ZM648.631 159.302C652.266 158.784 655.103 157.253 657.14 154.708C659.249 152.153 660.054 149.129 659.557 145.636C659.059 142.143 657.482 139.495 654.825 137.692C652.158 135.818 648.971 135.144 645.264 135.673C641.558 136.201 638.65 137.742 636.541 140.297C634.494 142.771 633.719 145.754 634.217 149.247C634.714 152.739 636.332 155.418 639.071 157.282C641.809 159.147 644.996 159.82 648.631 159.302Z" fill="url(#paint3_linear_49_53)"/>
    <path d="M132.784 212.508L132.501 210.528L130.521 210.81L130.804 212.79L132.784 212.508ZM151.495 209.842L153.475 209.56L153.193 207.58L151.213 207.862L151.495 209.842ZM157.055 248.868L157.337 250.848L159.317 250.566L159.035 248.586L157.055 248.868ZM142.407 250.955L140.427 251.237L140.709 253.217L142.689 252.935L142.407 250.955ZM141.752 246.358L143.732 246.075L143.144 241.947L140.292 244.99L141.752 246.358ZM102.741 253.552L103.402 251.665L102.741 253.552ZM87.0894 242.473L85.5184 243.711L85.5275 243.722L85.5367 243.734L87.0894 242.473ZM81.5451 201.263L83.3909 202.033L83.3948 202.024L81.5451 201.263ZM94.3962 185.032L93.2221 183.413L93.2221 183.413L94.3962 185.032ZM134.492 177.792L135.004 175.859L135.004 175.859L134.492 177.792ZM149.839 185.969L151.376 187.248L152.608 185.767L151.174 184.481L149.839 185.969ZM138.103 200.077L136.829 201.619L138.366 202.889L139.641 201.356L138.103 200.077ZM103.981 202.539L102.371 201.353L102.371 201.353L103.981 202.539ZM108.185 234.34L109.386 232.741L109.386 232.741L108.185 234.34ZM135.51 231.647L136.968 233.017L137.626 232.316L137.49 231.365L135.51 231.647ZM133.066 214.488L151.777 211.822L151.213 207.862L132.501 210.528L133.066 214.488ZM149.515 210.124L155.075 249.15L159.035 248.586L153.475 209.56L149.515 210.124ZM156.773 246.888L142.125 248.975L142.689 252.935L157.337 250.848L156.773 246.888ZM144.387 250.673L143.732 246.075L139.772 246.64L140.427 251.237L144.387 250.673ZM140.292 244.99C136.201 249.357 130.256 252.193 122.237 253.336L122.801 257.296C131.461 256.062 138.339 252.926 143.211 247.725L140.292 244.99ZM122.237 253.336C115.545 254.289 109.277 253.722 103.402 251.665L102.08 255.44C108.604 257.725 115.523 258.333 122.801 257.296L122.237 253.336ZM103.402 251.665C97.5591 249.619 92.6481 246.147 88.6421 241.212L85.5367 243.734C89.9985 249.229 95.5216 253.143 102.08 255.44L103.402 251.665ZM88.6604 241.235C84.745 236.266 82.2015 229.974 81.104 222.271L77.144 222.836C78.3214 231.099 81.0882 238.088 85.5184 243.711L88.6604 241.235ZM81.104 222.271C80.0525 214.891 80.8328 208.162 83.3908 202.033L79.6994 200.493C76.8356 207.355 76.0019 214.819 77.144 222.836L81.104 222.271ZM83.3948 202.024C85.9513 195.808 89.9976 190.692 95.5703 186.651L93.2221 183.413C87.0615 187.88 82.5404 193.585 79.6955 200.502L83.3948 202.024ZM95.5702 186.651C101.145 182.609 107.755 180.022 115.453 178.925L114.889 174.965C106.62 176.143 99.3809 178.947 93.2221 183.413L95.5702 186.651ZM115.453 178.925C122.215 177.962 128.381 178.244 133.98 179.726L135.004 175.859C128.812 174.22 122.098 173.938 114.889 174.965L115.453 178.925ZM133.98 179.726C139.584 181.209 144.413 183.788 148.503 187.458L151.174 184.481C146.592 180.368 141.19 177.496 135.004 175.859L133.98 179.726ZM148.301 184.69L136.566 198.799L139.641 201.356L151.376 187.248L148.301 184.69ZM139.378 198.536C133.123 193.365 126.11 191.257 118.457 192.347L119.021 196.307C125.48 195.387 131.378 197.113 136.829 201.619L139.378 198.536ZM118.457 192.347C111.531 193.334 106.092 196.301 102.371 201.353L105.592 203.725C108.574 199.677 112.974 197.169 119.021 196.307L118.457 192.347ZM102.371 201.353C98.7008 206.338 97.4923 212.519 98.5128 219.682L102.473 219.118C101.564 212.737 102.681 207.678 105.592 203.725L102.371 201.353ZM98.5128 219.682C99.537 226.87 102.281 232.409 106.985 235.94L109.386 232.741C105.783 230.036 103.399 225.615 102.473 219.118L98.5128 219.682ZM106.985 235.94C111.599 239.403 116.999 240.668 123.037 239.808L122.473 235.848C117.391 236.572 113.078 235.512 109.386 232.741L106.985 235.94ZM123.037 239.808C128.752 238.994 133.447 236.761 136.968 233.017L134.053 230.277C131.258 233.25 127.45 235.139 122.473 235.848L123.037 239.808ZM137.49 231.365L134.764 212.226L130.804 212.79L133.53 231.929L137.49 231.365ZM204.376 226.089L203.41 224.338L203.4 224.344L203.39 224.35L204.376 226.089ZM210.029 221.357L211.269 219.787L209.775 218.607L208.523 220.041L210.029 221.357ZM222.199 230.968L223.875 232.06L224.871 230.53L223.438 229.399L222.199 230.968ZM180.544 242.576L181.177 240.679L180.544 242.576ZM167.045 233.59L165.501 234.861L165.508 234.87L165.516 234.879L167.045 233.59ZM162.658 202.797L164.49 203.6L164.495 203.587L162.658 202.797ZM172.575 190.475L171.409 188.85L171.399 188.857L172.575 190.475ZM204.391 185.615L203.747 187.508L203.764 187.514L203.781 187.519L204.391 185.615ZM217.065 194.173L215.53 195.455L215.535 195.46L215.54 195.466L217.065 194.173ZM223.49 209.403L224.139 211.294L225.703 210.758L225.47 209.121L223.49 209.403ZM183.239 223.21L182.59 221.318L180.139 222.159L181.573 224.317L183.239 223.21ZM182.574 203.232L184.154 204.459L184.164 204.446L184.174 204.433L182.574 203.232ZM180.157 213.067L178.163 213.21L178.349 215.814L180.814 214.957L180.157 213.067ZM203.025 205.118L203.682 207.008L205.755 206.287L204.845 204.289L203.025 205.118ZM198.139 199.924L197.177 201.677L197.197 201.688L197.218 201.699L198.139 199.924ZM197.662 230.266C200.62 229.845 203.207 229.052 205.363 227.829L203.39 224.35C201.777 225.264 199.7 225.936 197.098 226.306L197.662 230.266ZM205.342 227.841C207.544 226.627 209.604 224.885 211.536 222.672L208.523 220.041C206.828 221.982 205.12 223.395 203.41 224.338L205.342 227.841ZM208.79 222.926L220.959 232.538L223.438 229.399L211.269 219.787L208.79 222.926ZM220.523 229.877C216.333 236.31 209.188 240.402 198.666 241.901L199.23 245.861C210.519 244.253 218.875 239.736 223.875 232.06L220.523 229.877ZM198.666 241.901C192.146 242.83 186.331 242.399 181.177 240.679L179.91 244.473C185.751 246.423 192.206 246.862 199.23 245.861L198.666 241.901ZM181.177 240.679C176.004 238.952 171.823 236.157 168.575 232.302L165.516 234.879C169.27 239.335 174.088 242.53 179.91 244.473L181.177 240.679ZM168.589 232.319C165.411 228.459 163.422 223.839 162.646 218.399L158.686 218.963C159.556 225.07 161.819 230.389 165.501 234.861L168.589 232.319ZM162.646 218.399C161.882 213.034 162.511 208.118 164.49 203.599L160.826 201.995C158.525 207.249 157.826 212.923 158.686 218.963L162.646 218.399ZM164.495 203.587C166.479 198.968 169.552 195.144 173.751 192.093L171.399 188.857C166.635 192.32 163.096 196.71 160.82 202.008L164.495 203.587ZM173.741 192.1C178.008 189.038 183.004 187.082 188.774 186.26L188.21 182.3C181.862 183.204 176.247 185.379 171.409 188.85L173.741 192.1ZM188.774 186.26C194.121 185.498 199.101 185.926 203.747 187.508L205.036 183.721C199.746 181.92 194.126 181.457 188.21 182.3L188.774 186.26ZM203.781 187.519C208.446 189.013 212.351 191.648 215.53 195.455L218.6 192.891C214.94 188.508 210.396 185.438 205.001 183.71L203.781 187.519ZM215.54 195.466C218.666 199.155 220.68 203.862 221.51 209.685L225.47 209.121C224.553 202.683 222.284 197.237 218.591 192.88L215.54 195.466ZM222.841 207.511L182.59 221.318L183.888 225.102L224.139 211.294L222.841 207.511ZM181.573 224.317C184.995 229.467 190.595 231.273 197.662 230.266L197.098 226.306C191.05 227.168 187.222 225.59 184.905 222.103L181.573 224.317ZM190.374 196.719C186.423 197.282 183.227 199.031 180.975 202.032L184.174 204.433C185.712 202.384 187.903 201.111 190.938 200.679L190.374 196.719ZM180.995 202.006C178.7 204.961 177.845 208.777 178.163 213.21L182.152 212.925C181.882 209.15 182.639 206.41 184.154 204.459L180.995 202.006ZM180.814 214.957L203.682 207.008L202.368 203.229L179.501 211.178L180.814 214.957ZM204.845 204.289C203.607 201.573 201.669 199.502 199.061 198.148L197.218 201.699C199.007 202.628 200.326 204.02 201.205 205.948L204.845 204.289ZM199.102 198.17C196.47 196.726 193.53 196.269 190.374 196.719L190.938 200.679C193.341 200.337 195.39 200.696 197.177 201.677L199.102 198.17ZM241.217 232.295L240.062 233.928L240.077 233.938L240.092 233.949L241.217 232.295ZM224.673 158.289L224.391 156.309L222.411 156.591L222.693 158.571L224.673 158.289ZM244.988 155.394L246.968 155.112L246.686 153.132L244.705 153.414L244.988 155.394ZM255.549 218.035L254.297 219.595L254.323 219.615L254.348 219.634L255.549 218.035ZM264.942 217.351L266.904 216.959L266.307 213.975L263.805 215.706L264.942 217.351ZM267.976 232.519L268.857 234.314L270.239 233.636L269.937 232.127L267.976 232.519ZM258.391 233.391C251.595 234.36 246.322 233.348 242.342 230.641L240.092 233.949C245.131 237.375 251.496 238.414 258.956 237.351L258.391 233.391ZM242.372 230.662C238.486 227.912 235.981 223.48 235.062 217.027L231.102 217.591C232.132 224.823 235.051 230.382 240.062 233.928L242.372 230.662ZM235.062 217.027L226.653 158.007L222.693 158.571L231.102 217.591L235.062 217.027ZM224.955 160.269L245.27 157.374L244.705 153.414L224.391 156.309L224.955 160.269ZM243.008 155.676L251.264 213.627L255.224 213.063L246.968 155.112L243.008 155.676ZM251.264 213.627C251.614 216.081 252.543 218.187 254.297 219.595L256.8 216.475C256.092 215.906 255.484 214.886 255.224 213.063L251.264 213.627ZM254.348 219.634C256.171 221.003 258.39 221.396 260.779 221.055L260.215 217.095C258.612 217.324 257.532 217.023 256.749 216.435L254.348 219.634ZM260.779 221.055C262.717 220.779 264.493 220.094 266.08 218.996L263.805 215.706C262.743 216.44 261.556 216.904 260.215 217.095L260.779 221.055ZM262.981 217.743L266.015 232.911L269.937 232.127L266.904 216.959L262.981 217.743ZM267.095 230.723C264.364 232.064 261.466 232.953 258.391 233.391L258.956 237.351C262.439 236.855 265.742 235.843 268.857 234.314L267.095 230.723ZM326.959 165.533L328.939 165.251L328.657 163.271L326.677 163.553L326.959 165.533ZM335.216 223.484L335.498 225.464L337.478 225.182L337.196 223.202L335.216 223.484ZM315.863 226.241L313.883 226.523L314.165 228.503L316.145 228.221L315.863 226.241ZM314.98 220.04L316.96 219.758L316.23 214.636L313.325 218.917L314.98 220.04ZM308.043 226.483L307.039 224.753L307.039 224.753L308.043 226.483ZM279.879 225.587L278.678 227.186L278.685 227.191L278.691 227.196L279.879 225.587ZM265.801 174.247L265.519 172.267L263.539 172.549L263.821 174.529L265.801 174.247ZM286.115 171.353L288.096 171.071L287.813 169.091L285.833 169.373L286.115 171.353ZM308.997 207.147L307.341 206.026L307.339 206.029L308.997 207.147ZM306.644 168.428L306.362 166.448L304.382 166.73L304.664 168.71L306.644 168.428ZM324.979 165.815L333.236 223.766L337.196 223.202L328.939 165.251L324.979 165.815ZM334.934 221.504L315.581 224.261L316.145 228.221L335.498 225.464L334.934 221.504ZM317.843 225.959L316.96 219.758L313 220.322L313.883 226.523L317.843 225.959ZM313.325 218.917C311.693 221.321 309.605 223.263 307.039 224.753L309.047 228.212C312.124 226.426 314.66 224.073 316.634 221.163L313.325 218.917ZM307.039 224.753C304.448 226.258 301.609 227.234 298.504 227.676L299.068 231.636C302.663 231.124 305.996 229.985 309.047 228.212L307.039 224.753ZM298.504 227.676C291.435 228.684 285.687 227.388 281.067 223.977L278.691 227.196C284.312 231.344 291.169 232.762 299.068 231.636L298.504 227.676ZM281.08 223.987C276.604 220.628 273.612 214.895 272.397 206.362L268.437 206.926C269.739 216.07 273.056 222.966 278.678 227.186L281.08 223.987ZM272.397 206.362L267.781 173.965L263.821 174.529L268.437 206.926L272.397 206.362ZM266.083 176.227L286.398 173.333L285.833 169.373L265.519 172.267L266.083 176.227ZM284.135 171.635L288.279 200.717L292.239 200.153L288.096 171.071L284.135 171.635ZM288.279 200.717C288.923 205.236 290.292 208.849 292.723 211.075L295.425 208.126C294.008 206.828 292.834 204.33 292.239 200.153L288.279 200.717ZM292.723 211.075C295.183 213.328 298.357 214.065 301.946 213.554L301.382 209.594C298.698 209.976 296.813 209.397 295.425 208.126L292.723 211.075ZM301.946 213.554C305.665 213.024 308.632 211.267 310.656 208.265L307.339 206.029C306 208.015 304.078 209.209 301.382 209.594L301.946 213.554ZM310.654 208.268C312.786 205.116 313.296 200.935 312.6 196.052L308.64 196.616C309.265 200.999 308.693 204.027 307.341 206.026L310.654 208.268ZM312.6 196.052L308.624 168.146L304.664 168.71L308.64 196.616L312.6 196.052ZM306.926 170.408L327.241 167.513L326.677 163.553L306.362 166.448L306.926 170.408ZM370.64 197.71L372.01 196.253L370.367 194.708L369.03 196.523L370.64 197.71ZM365.52 204.657L363.91 203.471L363.425 204.129L363.54 204.939L365.52 204.657ZM367.547 218.878L367.829 220.858L369.809 220.576L369.527 218.596L367.547 218.878ZM347.232 221.772L345.252 222.054L345.534 224.034L347.514 223.752L347.232 221.772ZM335.928 142.437L335.646 140.457L333.666 140.739L333.948 142.719L335.928 142.437ZM356.243 139.543L358.223 139.261L357.941 137.281L355.961 137.563L356.243 139.543ZM362.169 181.135L360.189 181.417L360.858 186.11L363.753 182.356L362.169 181.135ZM380.032 157.972L379.75 155.992L378.945 156.106L378.449 156.75L380.032 157.972ZM404.089 154.544L405.707 155.72L408.486 151.897L403.807 152.564L404.089 154.544ZM383.567 182.777L381.949 181.601L380.921 183.016L382.185 184.223L383.567 182.777ZM414.378 212.205L414.66 214.185L418.738 213.604L415.759 210.759L414.378 212.205ZM389.786 215.709L388.416 217.166L389.116 217.825L390.068 217.689L389.786 215.709ZM369.03 196.523L363.91 203.471L367.131 205.844L372.25 198.896L369.03 196.523ZM363.54 204.939L365.567 219.16L369.527 218.596L367.5 204.375L363.54 204.939ZM367.264 216.898L346.95 219.792L347.514 223.752L367.829 220.858L367.264 216.898ZM349.212 221.49L337.908 142.155L333.948 142.719L345.252 222.054L349.212 221.49ZM336.21 144.417L356.525 141.523L355.961 137.563L335.646 140.457L336.21 144.417ZM354.263 139.825L360.189 181.417L364.149 180.853L358.223 139.261L354.263 139.825ZM363.753 182.356L381.616 159.193L378.449 156.75L360.585 179.913L363.753 182.356ZM380.314 159.952L404.372 156.524L403.807 152.564L379.75 155.992L380.314 159.952ZM402.472 153.368L381.949 181.601L385.184 183.953L405.707 155.72L402.472 153.368ZM382.185 184.223L412.996 213.652L415.759 210.759L384.948 181.331L382.185 184.223ZM414.096 210.225L389.504 213.729L390.068 217.689L414.66 214.185L414.096 210.225ZM391.156 214.252L372.01 196.253L369.27 199.167L388.416 217.166L391.156 214.252ZM424.122 210.162L423.93 212.153L423.944 212.154L423.958 212.156L424.122 210.162ZM412.164 207.393L410.237 206.857L409.773 208.522L411.354 209.222L412.164 207.393ZM416.278 192.625L417.084 190.795L414.971 189.865L414.351 192.089L416.278 192.625ZM426.251 195.241L425.999 197.225L426.017 197.227L426.035 197.229L426.251 195.241ZM444.06 193.14L445.163 194.808L445.181 194.797L445.198 194.785L444.06 193.14ZM442.825 187.534L442.441 189.497L442.491 189.506L442.542 189.514L442.825 187.534ZM434.685 187.057L434.674 185.057L434.66 185.058L434.646 185.058L434.685 187.057ZM422.497 186.503L422.218 188.484L422.23 188.485L422.497 186.503ZM413.426 182.559L412.178 184.123L412.178 184.123L413.426 182.559ZM410.317 162.275L412.055 163.265L412.061 163.254L412.067 163.244L410.317 162.275ZM418.965 154.061L419.947 155.803L419.955 155.799L419.962 155.794L418.965 154.061ZM446.582 148.817L446.707 146.821L446.707 146.821L446.582 148.817ZM457.471 150.975L459.396 151.517L459.888 149.771L458.198 149.111L457.471 150.975ZM453.342 165.636L452.627 167.503L454.673 168.287L455.267 166.178L453.342 165.636ZM429.163 165.917L430.269 167.583L430.301 167.562L430.332 167.54L429.163 165.917ZM430.2 171.66L429.816 173.623L429.854 173.63L429.893 173.636L430.2 171.66ZM438.554 172.106L438.538 174.106L438.541 174.106L438.554 172.106ZM450.773 172.874L451.063 170.895L451.063 170.895L450.773 172.874ZM459.63 176.849L458.359 178.393L458.382 178.412L458.406 178.43L459.63 176.849ZM462.708 196.919L464.446 197.909L464.452 197.899L464.457 197.888L462.708 196.919ZM453.831 205.057L452.868 203.304L452.859 203.309L453.831 205.057ZM438.396 207.745C433.696 208.414 428.993 208.556 424.286 208.169L423.958 212.156C428.964 212.567 433.966 212.416 438.96 211.705L438.396 207.745ZM424.314 208.172C419.575 207.714 415.818 206.825 412.974 205.565L411.354 209.222C414.72 210.714 418.935 211.67 423.93 212.153L424.314 208.172ZM414.091 207.93L418.205 193.162L414.351 192.089L410.237 206.857L414.091 207.93ZM415.472 194.456C418.552 195.812 422.069 196.726 425.999 197.225L426.503 193.257C422.877 192.796 419.746 191.967 417.084 190.795L415.472 194.456ZM426.035 197.229C429.959 197.655 433.792 197.605 437.53 197.072L436.965 193.112C433.575 193.595 430.077 193.644 426.466 193.253L426.035 197.229ZM437.53 197.072C440.834 196.601 443.498 195.909 445.163 194.808L442.958 191.471C442.097 192.04 440.219 192.649 436.965 193.112L437.53 197.072ZM445.198 194.785C446.964 193.563 448.07 191.788 447.752 189.559L443.792 190.123C443.84 190.461 443.805 190.885 442.922 191.495L445.198 194.785ZM447.752 189.559C447.591 188.429 447.046 187.444 446.131 186.727C445.269 186.052 444.202 185.711 443.109 185.554L442.542 189.514C443.23 189.612 443.545 189.783 443.665 189.877C443.717 189.918 443.736 189.946 443.746 189.963C443.756 189.981 443.778 190.026 443.792 190.123L447.752 189.559ZM443.209 185.571C441.282 185.194 438.401 185.038 434.674 185.057L434.695 189.057C438.381 189.038 440.927 189.2 442.441 189.497L443.209 185.571ZM434.646 185.058C430 185.146 426.044 184.963 422.764 184.521L422.23 188.485C425.771 188.962 429.941 189.148 434.723 189.057L434.646 185.058ZM422.775 184.523C419.8 184.104 417.109 182.938 414.673 180.996L412.178 184.123C415.158 186.499 418.514 187.963 422.218 188.484L422.775 184.523ZM414.673 180.996C412.475 179.243 410.975 176.448 410.384 172.302L406.424 172.866C407.113 177.7 408.961 181.556 412.178 184.123L414.673 180.996ZM410.384 172.302C409.917 169.021 410.478 166.034 412.055 163.265L408.579 161.285C406.55 164.848 405.835 168.733 406.424 172.866L410.384 172.302ZM412.067 163.244C413.643 160.398 416.223 157.902 419.947 155.803L417.983 152.318C413.763 154.697 410.578 157.677 408.568 161.306L412.067 163.244ZM419.962 155.794C423.722 153.632 428.438 152.113 434.171 151.296L433.607 147.336C427.507 148.205 422.274 149.85 417.968 152.327L419.962 155.794ZM434.171 151.296C438.241 150.716 442.336 150.555 446.457 150.813L446.707 146.821C442.315 146.546 437.948 146.718 433.607 147.336L434.171 151.296ZM446.457 150.813C450.569 151.07 453.984 151.761 456.744 152.838L458.198 149.111C454.951 147.844 451.107 147.096 446.707 146.821L446.457 150.813ZM455.546 150.432L451.416 165.093L455.267 166.178L459.396 151.517L455.546 150.432ZM454.056 163.768C448.194 161.524 442.088 160.855 435.771 161.755L436.335 165.715C441.993 164.909 447.412 165.507 452.627 167.503L454.056 163.768ZM435.771 161.755C432.482 162.224 429.786 163.004 427.995 164.294L430.332 167.54C431.312 166.835 433.208 166.161 436.335 165.715L435.771 161.755ZM428.057 164.25C426.296 165.42 425.028 167.149 425.349 169.406L429.309 168.841C429.286 168.675 429.24 168.266 430.269 167.583L428.057 164.25ZM425.349 169.406C425.508 170.517 426.006 171.511 426.867 172.272C427.694 173.002 428.731 173.411 429.816 173.623L430.584 169.697C429.948 169.573 429.647 169.39 429.516 169.275C429.42 169.19 429.344 169.084 429.309 168.841L425.349 169.406ZM429.893 173.636C431.759 173.926 434.67 174.074 438.538 174.106L438.571 170.106C434.721 170.074 432.062 169.925 430.507 169.684L429.893 173.636ZM438.541 174.106C443.365 174.138 447.338 174.391 450.482 174.853L451.063 170.895C447.671 170.398 443.498 170.139 438.568 170.106L438.541 174.106ZM450.482 174.853C453.378 175.278 455.994 176.446 458.359 178.393L460.901 175.304C457.993 172.911 454.705 171.43 451.063 170.895L450.482 174.853ZM458.406 178.43C460.577 180.111 462.061 182.823 462.641 186.892L466.601 186.328C465.921 181.558 464.078 177.763 460.854 175.267L458.406 178.43ZM462.641 186.892C463.097 190.093 462.542 193.09 460.958 195.95L464.457 197.888C466.46 194.273 467.181 190.398 466.601 186.328L462.641 186.892ZM460.97 195.929C459.395 198.694 456.751 201.172 452.868 203.304L454.793 206.81C459.14 204.423 462.414 201.477 464.446 197.909L460.97 195.929ZM452.859 203.309C449.086 205.407 444.286 206.906 438.396 207.745L438.96 211.705C445.187 210.818 450.489 209.204 454.803 206.805L452.859 203.309ZM525.163 115.475L527.143 115.193L526.861 113.213L524.881 113.495L525.163 115.475ZM536.466 194.81L536.748 196.79L538.728 196.508L538.446 194.528L536.466 194.81ZM517.114 197.568L515.134 197.85L515.416 199.83L517.396 199.548L517.114 197.568ZM516.291 191.794L518.271 191.512L517.498 186.082L514.594 190.735L516.291 191.794ZM485.298 199.373L484.558 201.231L484.569 201.236L484.581 201.24L485.298 199.373ZM473.419 190.266L471.817 191.463L471.824 191.473L471.832 191.482L473.419 190.266ZM468.925 158.724L467.061 158L467.057 158.009L468.925 158.724ZM477.803 146.769L476.593 145.176L476.593 145.176L477.803 146.769ZM508.611 144.779L507.367 146.345L511.299 149.47L510.591 144.497L508.611 144.779ZM504.848 118.37L504.566 116.39L502.586 116.672L502.868 118.652L504.848 118.37ZM510.37 179.328L512.005 180.48L512.013 180.468L512.021 180.456L510.37 179.328ZM507.475 159.014L506.202 160.556L506.214 160.566L506.227 160.576L507.475 159.014ZM490.047 161.497L491.682 162.648L491.682 162.648L490.047 161.497ZM492.942 181.812L491.671 183.356L491.682 183.365L491.693 183.374L492.942 181.812ZM523.183 115.758L534.486 195.092L538.446 194.528L527.143 115.193L523.183 115.758ZM536.184 192.83L516.832 195.588L517.396 199.548L536.748 196.79L536.184 192.83ZM519.094 197.285L518.271 191.512L514.311 192.076L515.134 197.85L519.094 197.285ZM514.594 190.735C511.854 195.127 507.12 197.953 499.968 198.972L500.533 202.932C508.492 201.798 514.452 198.519 517.988 192.853L514.594 190.735ZM499.968 198.972C495.01 199.678 490.372 199.181 486.016 197.506L484.581 201.24C489.611 203.174 494.941 203.729 500.533 202.932L499.968 198.972ZM486.039 197.515C481.685 195.78 478.013 192.973 475.006 189.049L471.832 191.482C475.257 195.952 479.504 199.216 484.558 201.231L486.039 197.515ZM475.021 189.068C472.105 185.169 470.215 180.399 469.402 174.693L465.442 175.257C466.335 181.526 468.443 186.95 471.817 191.463L475.021 189.068ZM469.402 174.693C468.589 168.986 469.078 163.919 470.793 159.439L467.057 158.009C465.062 163.222 464.549 168.989 465.442 175.257L469.402 174.693ZM470.789 159.449C472.579 154.847 475.32 151.169 479.014 148.361L476.593 145.176C472.281 148.454 469.104 152.747 467.061 158L470.789 159.449ZM479.014 148.361C482.729 145.536 487.044 143.763 492.002 143.057L491.437 139.097C485.846 139.893 480.883 141.915 476.593 145.176L479.014 148.361ZM492.002 143.057C498.521 142.128 503.556 143.317 507.367 146.345L509.855 143.213C504.973 139.334 498.746 138.055 491.437 139.097L492.002 143.057ZM510.591 144.497L506.828 118.088L502.868 118.652L506.631 145.061L510.591 144.497ZM505.13 120.35L525.445 117.455L524.881 113.495L504.566 116.39L505.13 120.35ZM502.509 186.178C506.517 185.607 509.734 183.704 512.005 180.48L508.734 178.177C507.134 180.45 504.922 181.794 501.945 182.218L502.509 186.178ZM512.021 180.456C514.302 177.117 514.978 172.991 514.309 168.295L510.349 168.859C510.918 172.858 510.288 175.901 508.718 178.201L512.021 180.456ZM514.309 168.295C513.649 163.662 511.852 159.951 508.724 157.451L506.227 160.576C508.351 162.274 509.79 164.937 510.349 168.859L514.309 168.295ZM508.748 157.471C505.719 154.971 502.081 154.053 498.015 154.632L498.579 158.592C501.64 158.156 504.121 158.839 506.202 160.556L508.748 157.471ZM498.015 154.632C493.948 155.212 490.69 157.111 488.412 160.345L491.682 162.648C493.276 160.385 495.517 159.028 498.579 158.592L498.015 154.632ZM488.412 160.345C486.106 163.619 485.418 167.685 486.078 172.317L490.038 171.753C489.479 167.831 490.117 164.872 491.682 162.648L488.412 160.345ZM486.078 172.317C486.747 177.013 488.548 180.786 491.671 183.356L494.213 180.267C492.062 178.498 490.608 175.752 490.038 171.753L486.078 172.317ZM491.693 183.374C494.783 185.843 498.442 186.757 502.509 186.178L501.945 182.218C498.884 182.654 496.353 181.977 494.19 180.249L491.693 183.374ZM601.476 126.421L603.456 126.139L603.174 124.159L601.194 124.441L601.476 126.421ZM609.733 184.371L610.015 186.351L611.995 186.069L611.713 184.089L609.733 184.371ZM590.38 187.129L588.4 187.411L588.682 189.391L590.662 189.109L590.38 187.129ZM589.557 181.355L591.537 181.073L590.764 175.644L587.861 180.296L589.557 181.355ZM558.458 188.95L557.704 190.802L557.722 190.809L557.74 190.817L558.458 188.95ZM546.685 179.827L545.083 181.025L545.09 181.034L545.098 181.044L546.685 179.827ZM542.191 148.286L540.327 147.561L540.323 147.571L542.191 148.286ZM550.963 136.345L549.752 134.753L549.741 134.761L550.963 136.345ZM581.877 134.34L580.662 135.929L584.547 138.9L583.857 134.058L581.877 134.34ZM581.161 129.315L580.879 127.335L578.899 127.617L579.181 129.597L581.161 129.315ZM583.636 168.89L585.271 170.041L585.279 170.029L585.288 170.017L583.636 168.89ZM580.741 148.575L581.99 147.012L581.99 147.012L580.741 148.575ZM563.207 151.073L561.571 149.922L561.571 149.922L563.207 151.073ZM566.101 171.388L564.83 172.932L564.841 172.941L564.852 172.95L566.101 171.388ZM599.496 126.703L607.753 184.653L611.713 184.089L603.456 126.139L599.496 126.703ZM609.45 182.391L590.098 185.149L590.662 189.109L610.015 186.351L609.45 182.391ZM592.36 186.847L591.537 181.073L587.577 181.637L588.4 187.411L592.36 186.847ZM587.861 180.296C585.123 184.683 580.358 187.518 573.128 188.548L573.692 192.508C581.716 191.365 587.715 188.085 591.254 182.414L587.861 180.296ZM573.128 188.548C568.17 189.255 563.531 188.757 559.175 187.083L557.74 190.817C562.771 192.75 568.101 193.305 573.692 192.508L573.128 188.548ZM559.212 187.097C554.928 185.354 551.285 182.541 548.273 178.61L545.098 181.044C548.517 185.505 552.723 188.775 557.704 190.802L559.212 187.097ZM548.287 178.629C545.372 174.73 543.481 169.96 542.668 164.254L538.708 164.818C539.602 171.087 541.709 176.511 545.083 181.025L548.287 178.629ZM542.668 164.254C541.855 158.547 542.344 153.48 544.059 149.001L540.323 147.571C538.328 152.783 537.815 158.55 538.708 164.818L542.668 164.254ZM544.055 149.01C545.848 144.399 548.56 140.724 552.184 137.928L549.741 134.761C545.502 138.031 542.366 142.317 540.327 147.561L544.055 149.01ZM552.173 137.937C555.888 135.113 560.203 133.34 565.161 132.633L564.597 128.673C559.005 129.47 554.043 131.491 549.752 134.753L552.173 137.937ZM565.161 132.633C571.599 131.716 576.691 132.892 580.662 135.929L583.092 132.752C578.085 128.922 571.845 127.64 564.597 128.673L565.161 132.633ZM583.857 134.058L583.141 129.033L579.181 129.597L579.897 134.622L583.857 134.058ZM581.443 131.295L601.758 128.401L601.194 124.441L580.879 127.335L581.443 131.295ZM575.668 175.754C579.735 175.175 582.994 173.275 585.271 170.041L582.001 167.738C580.407 170.001 578.166 171.358 575.104 171.794L575.668 175.754ZM585.288 170.017C587.568 166.678 588.244 162.552 587.575 157.856L583.615 158.42C584.185 162.42 583.555 165.462 581.984 167.762L585.288 170.017ZM587.575 157.856C586.915 153.224 585.118 149.512 581.99 147.012L579.493 150.137C581.617 151.835 583.056 154.498 583.615 158.42L587.575 157.856ZM581.99 147.012C578.9 144.543 575.241 143.629 571.174 144.209L571.738 148.169C574.799 147.733 577.33 148.409 579.493 150.137L581.99 147.012ZM571.174 144.209C567.107 144.788 563.849 146.688 561.571 149.922L564.842 152.225C566.436 149.962 568.677 148.605 571.738 148.169L571.174 144.209ZM561.571 149.922C559.266 153.195 558.577 157.261 559.237 161.893L563.197 161.329C562.638 157.407 563.276 154.448 564.842 152.225L561.571 149.922ZM559.237 161.893C559.906 166.59 561.707 170.362 564.83 172.932L567.372 169.844C565.222 168.074 563.767 165.329 563.197 161.329L559.237 161.893ZM564.852 172.95C567.943 175.42 571.602 176.334 575.668 175.754L575.104 171.794C572.043 172.23 569.512 171.553 567.349 169.826L564.852 172.95ZM675.819 115.828L677.799 115.546L677.517 113.566L675.537 113.848L675.819 115.828ZM677.243 188.607L675.698 187.336L675.69 187.347L677.243 188.607ZM636.855 200.689L637.075 198.701L637.075 198.701L636.855 200.689ZM623.324 196.835L621.437 196.173L620.863 197.811L622.403 198.61L623.324 196.835ZM628.676 181.563L629.711 179.852L627.603 178.577L626.788 180.902L628.676 181.563ZM638.19 184.79L638.513 182.816L638.501 182.814L638.489 182.812L638.19 184.79ZM660.384 179.773L661.948 181.02L661.948 181.02L660.384 179.773ZM662.359 166.837L664.339 166.555L663.578 161.213L660.674 165.76L662.359 166.837ZM631.412 174.737L630.718 176.613L630.73 176.617L630.742 176.622L631.412 174.737ZM619.639 166.378L618.087 167.639L618.091 167.644L618.096 167.65L619.639 166.378ZM615.465 137.082L617.302 137.872L617.305 137.866L617.308 137.859L615.465 137.082ZM624.435 125.768L625.605 127.39L625.615 127.382L625.625 127.375L624.435 125.768ZM657.472 125.642L656.03 127.028L660.326 131.499L659.452 125.36L657.472 125.642ZM656.466 118.586L656.184 116.606L654.204 116.888L654.486 118.868L656.466 118.586ZM657.14 154.708L655.598 153.435L655.588 153.446L655.579 153.458L657.14 154.708ZM654.825 137.692L653.675 139.329L653.688 139.338L653.702 139.347L654.825 137.692ZM636.541 140.297L638.082 141.573L638.084 141.57L636.541 140.297ZM639.071 157.282L640.196 155.629L640.196 155.629L639.071 157.282ZM673.839 116.11L680.587 163.476L684.547 162.912L677.799 115.546L673.839 116.11ZM680.587 163.476C682.071 173.891 680.31 181.73 675.698 187.337L678.787 189.878C684.342 183.126 686.13 174.023 684.547 162.912L680.587 163.476ZM675.69 187.347C671.038 193.078 663.553 196.828 652.885 198.348L653.449 202.308C664.736 200.7 673.301 196.636 678.796 189.868L675.69 187.347ZM652.885 198.348C647.332 199.14 642.064 199.253 637.075 198.701L636.635 202.677C641.991 203.269 647.598 203.142 653.449 202.308L652.885 198.348ZM637.075 198.701C632.1 198.151 627.836 196.923 624.245 195.06L622.403 198.61C626.509 200.741 631.266 202.083 636.635 202.677L637.075 198.701ZM625.212 197.496L630.563 182.225L626.788 180.902L621.437 196.173L625.212 197.496ZM627.64 183.274C630.537 185.027 633.971 186.175 637.891 186.767L638.489 182.812C634.976 182.281 632.067 181.278 629.711 179.852L627.64 183.274ZM637.866 186.763C641.846 187.416 645.696 187.486 649.408 186.957L648.843 182.997C645.569 183.463 642.129 183.409 638.513 182.816L637.866 186.763ZM649.408 186.957C654.986 186.162 659.332 184.299 661.948 181.02L658.82 178.526C657.117 180.662 653.957 182.268 648.843 182.997L649.408 186.957ZM661.948 181.02C664.559 177.746 665.323 173.459 664.613 168.479L660.653 169.044C661.264 173.33 660.529 176.384 658.82 178.526L661.948 181.02ZM664.613 168.479L664.339 166.555L660.379 167.119L660.653 169.044L664.613 168.479ZM660.674 165.76C657.794 170.268 652.976 173.135 645.838 174.152L646.402 178.112C654.375 176.976 660.383 173.647 664.045 167.913L660.674 165.76ZM645.838 174.152C641.011 174.84 636.436 174.401 632.082 172.853L630.742 176.622C635.734 178.396 640.964 178.887 646.402 178.112L645.838 174.152ZM632.106 172.861C627.753 171.251 624.122 168.672 621.183 165.106L618.096 167.65C621.487 171.764 625.705 174.758 630.718 176.613L632.106 172.861ZM621.192 165.117C618.271 161.519 616.415 157.133 615.668 151.889L611.708 152.454C612.545 158.33 614.657 163.415 618.087 167.639L621.192 165.117ZM615.668 151.889C614.932 146.722 615.497 142.068 617.302 137.872L613.628 136.291C611.5 141.238 610.88 146.644 611.708 152.454L615.668 151.889ZM617.308 137.859C619.125 133.549 621.884 130.072 625.605 127.39L623.265 124.145C618.94 127.264 615.719 131.33 613.622 136.305L617.308 137.859ZM625.625 127.375C629.361 124.609 633.619 122.879 638.435 122.193L637.871 118.233C632.422 119.009 627.535 120.983 623.245 124.16L625.625 127.375ZM638.435 122.193C646.248 121.08 651.978 122.812 656.03 127.028L658.914 124.257C653.744 118.877 646.595 116.99 637.871 118.233L638.435 122.193ZM659.452 125.36L658.446 118.304L654.486 118.868L655.492 125.925L659.452 125.36ZM656.748 120.566L676.101 117.808L675.537 113.848L656.184 116.606L656.748 120.566ZM648.913 161.282C652.983 160.702 656.305 158.951 658.701 155.958L655.579 153.458C653.9 155.554 651.549 156.866 648.349 157.322L648.913 161.282ZM658.683 155.981C661.175 152.961 662.108 149.363 661.537 145.354L657.577 145.918C658.001 148.895 657.323 151.344 655.598 153.435L658.683 155.981ZM661.537 145.354C660.968 141.365 659.12 138.19 655.948 136.037L653.702 139.347C655.843 140.801 657.15 142.922 657.577 145.918L661.537 145.354ZM655.975 136.056C652.83 133.845 649.112 133.104 644.982 133.693L645.546 137.653C648.83 137.185 651.486 137.79 653.675 139.329L655.975 136.056ZM644.982 133.693C640.851 134.281 637.467 136.034 634.999 139.024L638.084 141.57C639.834 139.45 642.264 138.12 645.546 137.653L644.982 133.693ZM635.001 139.022C632.556 141.975 631.668 145.54 632.237 149.529L636.197 148.965C635.77 145.968 636.432 143.566 638.082 141.573L635.001 139.022ZM632.237 149.529C632.808 153.538 634.709 156.732 637.945 158.936L640.196 155.629C637.956 154.104 636.621 151.941 636.197 148.965L632.237 149.529ZM637.945 158.936C641.141 161.112 644.842 161.862 648.913 161.282L648.349 157.322C645.149 157.778 642.477 157.182 640.196 155.629L637.945 158.936Z" fill="white" mask="url(#path-5-outside-1_49_53)"/>
    <rect x="65.3333" y="316.45" width="80" height="80" rx="2" transform="rotate(-6.63402 65.3333 316.45)" fill="url(#paint4_linear_49_53)"/>
    <rect x="77.348" y="419.753" width="80" height="80" rx="2" transform="rotate(-6.63402 77.348 419.753)" fill="url(#paint5_linear_49_53)"/>
    <rect x="89.3629" y="523.057" width="80" height="80" rx="2" transform="rotate(-6.63402 89.3629 523.057)" fill="url(#paint6_linear_49_53)"/>
    <rect x="101.378" y="626.361" width="80" height="80" rx="2" transform="rotate(-6.63402 101.378 626.361)" fill="url(#paint7_linear_49_53)"/>
    <rect x="260.021" y="293.806" width="80" height="80" rx="2" transform="rotate(-6.63402 260.021 293.806)" fill="url(#paint8_linear_49_53)"/>
    <rect x="272.036" y="397.11" width="80" height="80" rx="2" transform="rotate(-6.63402 272.036 397.11)" fill="url(#paint9_linear_49_53)"/>
    <rect x="284.051" y="500.414" width="80" height="80" rx="2" transform="rotate(-6.63402 284.051 500.414)" fill="url(#paint10_linear_49_53)"/>
    <rect x="296.065" y="603.717" width="80" height="80" rx="2" transform="rotate(-6.63402 296.065 603.717)" fill="url(#paint11_linear_49_53)"/>
    <rect x="454.708" y="271.163" width="80" height="80" rx="2" transform="rotate(-6.63402 454.708 271.163)" fill="url(#paint12_linear_49_53)"/>
    <rect x="466.723" y="374.467" width="80" height="80" rx="2" transform="rotate(-6.63402 466.723 374.467)" fill="url(#paint13_linear_49_53)"/>
    <rect x="478.738" y="477.77" width="80" height="80" rx="2" transform="rotate(-6.63402 478.738 477.77)" fill="url(#paint14_linear_49_53)"/>
    <rect x="490.753" y="581.074" width="80" height="80" rx="2" transform="rotate(-6.63402 490.753 581.074)" fill="url(#paint15_linear_49_53)"/>
    <rect x="649.396" y="248.52" width="80" height="80" rx="2" transform="rotate(-6.63402 649.396 248.52)" fill="url(#paint16_linear_49_53)"/>
    <rect x="661.411" y="351.824" width="80" height="80" rx="2" transform="rotate(-6.63402 661.411 351.824)" fill="url(#paint17_linear_49_53)"/>
    <rect x="673.426" y="455.127" width="80" height="80" rx="2" transform="rotate(-6.63402 673.426 455.127)" fill="url(#paint18_linear_49_53)"/>
    <rect x="685.441" y="558.431" width="80" height="80" rx="2" transform="rotate(-6.63402 685.441 558.431)" fill="url(#paint19_linear_49_53)"/>
    <rect x="162.677" y="305.128" width="80" height="80" rx="2" transform="rotate(-6.63402 162.677 305.128)" fill="url(#paint20_linear_49_53)"/>
    <rect x="174.692" y="408.432" width="80" height="80" rx="2" transform="rotate(-6.63402 174.692 408.432)" fill="url(#paint21_linear_49_53)"/>
    <rect x="186.707" y="511.735" width="80" height="80" rx="2" transform="rotate(-6.63402 186.707 511.735)" fill="url(#paint22_linear_49_53)"/>
    <rect x="198.722" y="615.039" width="80" height="80" rx="2" transform="rotate(-6.63402 198.722 615.039)" fill="url(#paint23_linear_49_53)"/>
    <rect x="357.365" y="282.485" width="80" height="80" rx="2" transform="rotate(-6.63402 357.365 282.485)" fill="url(#paint24_linear_49_53)"/>
    <rect x="369.38" y="385.788" width="80" height="80" rx="2" transform="rotate(-6.63402 369.38 385.788)" fill="url(#paint25_linear_49_53)"/>
    <rect x="381.394" y="489.092" width="80" height="80" rx="2" transform="rotate(-6.63402 381.394 489.092)" fill="url(#paint26_linear_49_53)"/>
    <rect x="393.409" y="592.396" width="80" height="80" rx="2" transform="rotate(-6.63402 393.409 592.396)" fill="url(#paint27_linear_49_53)"/>
    <rect x="552.052" y="259.842" width="80" height="80" rx="2" transform="rotate(-6.63402 552.052 259.842)" fill="url(#paint28_linear_49_53)"/>
    <rect x="564.067" y="363.145" width="80" height="80" rx="2" transform="rotate(-6.63402 564.067 363.145)" fill="url(#paint29_linear_49_53)"/>
    <rect x="576.082" y="466.449" width="80" height="80" rx="2" transform="rotate(-6.63402 576.082 466.449)" fill="url(#paint30_linear_49_53)"/>
    <rect x="588.097" y="569.753" width="80" height="80" rx="2" transform="rotate(-6.63402 588.097 569.753)" fill="url(#paint31_linear_49_53)"/>
    <g clip-path="url(#clip0_49_53)">
        <path d="M428.073 278.433C415.867 282.238 406.379 284.749 404.675 285.194C404.66 285.154 404.624 285.125 404.592 285.093C405.943 283.986 414.167 277.432 424.928 272.95C443.901 265.051 426.977 244.428 415.251 255.672C412.086 240.721 388.605 246.326 396.105 264.158C400.682 275.035 403.736 283.481 404.279 285.003C404.234 285.015 404.202 285.047 404.166 285.074C402.881 283.853 395.285 276.435 389.975 266.817C380.612 249.857 357.666 264.364 370.65 274.989C353.807 277.45 360.676 298.346 380.68 292.113C392.503 288.43 401.8 285.949 403.918 285.392C403.798 285.568 403.687 285.748 403.571 285.924C401.165 287.829 393.523 293.557 383.823 297.596C365.36 305.284 380.895 325.012 392.548 315.699C392.061 318.337 391.634 320.985 391.301 323.643C390.441 330.364 390.062 337.134 389.969 343.911C389.904 350.697 390.117 357.455 390.778 364.284C390.779 364.295 390.782 364.311 390.783 364.322C390.88 365.083 391.656 365.646 392.516 365.577C393.375 365.508 393.994 364.834 393.897 364.073L393.892 364.038C393.045 357.411 392.621 350.66 392.48 343.955C392.367 337.241 392.535 330.522 393.182 323.846C393.406 321.473 393.709 319.107 394.055 316.746C398.716 329.289 419.811 323.426 412.647 306.392C408.19 295.795 405.169 287.49 404.512 285.661C404.546 285.608 404.577 285.553 404.61 285.501C405.971 286.796 413.501 294.18 418.777 303.733C428.14 320.693 451.085 306.189 438.104 295.561C454.944 293.098 448.073 272.201 428.073 278.433Z" fill="#00AB37"/>
    </g>
    <g clip-path="url(#clip1_49_53)">
        <path d="M257.229 507.714C245.023 511.52 235.535 514.03 233.831 514.476C233.816 514.435 233.781 514.407 233.748 514.374C235.1 513.267 243.323 506.713 254.084 502.231C273.058 494.332 256.133 473.709 244.407 484.953C241.242 470.003 217.761 475.607 225.261 493.439C229.838 504.316 232.892 512.762 233.435 514.284C233.39 514.296 233.358 514.328 233.322 514.356C232.037 513.134 224.441 505.717 219.132 496.098C209.768 479.138 186.822 493.645 199.806 504.27C182.963 506.731 189.832 527.627 209.836 521.394C221.659 517.711 230.956 515.231 233.074 514.673C232.954 514.849 232.844 515.029 232.727 515.205C230.321 517.111 222.679 522.838 212.979 526.877C194.516 534.565 210.051 554.294 221.705 544.98C221.217 547.619 220.79 550.266 220.457 552.924C219.597 559.645 219.219 566.416 219.125 573.192C219.06 579.978 219.273 586.736 219.935 593.565C219.935 593.576 219.938 593.592 219.939 593.603C220.036 594.365 220.812 594.927 221.672 594.858C222.531 594.79 223.15 594.115 223.053 593.354L223.048 593.32C222.201 586.692 221.777 579.941 221.636 573.236C221.523 566.522 221.691 559.803 222.338 553.127C222.562 550.754 222.865 548.388 223.211 546.027C227.872 558.571 248.968 552.707 241.803 535.673C237.346 525.076 234.325 516.771 233.668 514.942C233.702 514.889 233.733 514.834 233.766 514.782C235.127 516.077 242.658 523.461 247.933 533.014C257.297 549.975 280.241 535.47 267.26 524.842C284.101 522.379 277.23 501.483 257.229 507.714Z" fill="#00AB37"/>
    </g>
    <g clip-path="url(#clip2_49_53)">
        <path d="M658.619 565.731C646.413 569.537 636.925 572.047 635.221 572.493C635.206 572.452 635.171 572.424 635.139 572.391C636.49 571.284 644.714 564.73 655.474 560.248C674.448 552.349 657.523 531.726 645.797 542.97C642.633 528.02 619.151 533.624 626.651 551.456C631.228 562.333 634.282 570.779 634.825 572.301C634.78 572.313 634.748 572.345 634.712 572.373C633.427 571.151 625.831 563.734 620.522 554.115C611.158 537.155 588.212 551.662 601.196 562.287C584.353 564.748 591.222 585.644 611.226 579.411C623.049 575.728 632.346 573.248 634.464 572.69C634.344 572.866 634.234 573.046 634.117 573.222C631.711 575.128 624.069 580.855 614.369 584.894C595.906 592.582 611.441 612.311 623.095 602.997C622.607 605.636 622.18 608.283 621.847 610.941C620.987 617.662 620.609 624.433 620.515 631.209C620.45 637.995 620.663 644.753 621.325 651.582C621.325 651.593 621.328 651.609 621.329 651.62C621.426 652.382 622.202 652.944 623.062 652.875C623.921 652.807 624.54 652.132 624.443 651.371L624.438 651.337C623.591 644.709 623.167 637.958 623.026 631.253C622.913 624.539 623.081 617.82 623.728 611.144C623.952 608.771 624.255 606.405 624.601 604.044C629.262 616.588 650.358 610.724 643.193 593.69C638.736 583.093 635.715 574.788 635.058 572.959C635.092 572.906 635.123 572.851 635.156 572.799C636.517 574.094 644.048 581.478 649.323 591.031C658.687 607.992 681.631 593.487 668.65 582.859C685.491 580.396 678.62 559.5 658.619 565.731Z" fill="#00AB37"/>
    </g>
    <defs>
        <filter id="filter0_d_49_53" x="1.5456" y="0.612286" width="858.909" height="816.775" filterUnits="userSpaceOnUse" color-interpolation-filters="sRGB">
            <feFlood flood-opacity="0" result="BackgroundImageFix"/>
            <feColorMatrix in="SourceAlpha" type="matrix" values="0 0 0 0 0 0 0 0 0 0 0 0 0 0 0 0 0 0 127 0" result="hardAlpha"/>
            <feOffset dx="9" dy="17"/>
            <feGaussianBlur stdDeviation="15.85"/>
            <feComposite in2="hardAlpha" operator="out"/>
            <feColorMatrix type="matrix" values="0 0 0 0 0 0 0 0 0 0 0 0 0 0 0 0 0 0 0.44 0"/>
            <feBlend mode="normal" in2="BackgroundImageFix" result="effect1_dropShadow_49_53"/>
            <feBlend mode="normal" in="SourceGraphic" in2="effect1_dropShadow_49_53" result="shape"/>
        </filter>
        <linearGradient id="paint0_linear_49_53" x1="418.191" y1="820.449" x2="574.596" y2="98.4767" gradientUnits="userSpaceOnUse">
            <stop stop-color="white"/>
            <stop offset="0.571798" stop-color="#FEFEFE"/>
            <stop offset="1" stop-color="#FDFDFD"/>
        </linearGradient>
        <linearGradient id="paint1_linear_49_53" x1="408.191" y1="834.449" x2="564.596" y2="112.477" gradientUnits="userSpaceOnUse">
            <stop stop-color="white"/>
            <stop offset="0.571798" stop-color="#FEFEFE"/>
            <stop offset="1" stop-color="#FDFDFD"/>
        </linearGradient>
        <linearGradient id="paint2_linear_49_53" x1="398.815" y1="849.006" x2="555.22" y2="127.034" gradientUnits="userSpaceOnUse">
            <stop stop-color="white"/>
            <stop offset="0.571798" stop-color="#FEFEFE"/>
            <stop offset="1" stop-color="#FDFDFD"/>
        </linearGradient>
        <linearGradient id="paint3_linear_49_53" x1="405.011" y1="240.812" x2="446.92" y2="165.627" gradientUnits="userSpaceOnUse">
            <stop stop-color="#0568D8"/>
            <stop offset="1" stop-color="#0077FF"/>
        </linearGradient>
        <linearGradient id="paint4_linear_49_53" x1="105.333" y1="316.45" x2="105.333" y2="396.45" gradientUnits="userSpaceOnUse">
            <stop stop-color="#84DDFA"/>
            <stop offset="1" stop-color="#A7E9FF"/>
        </linearGradient>
        <linearGradient id="paint5_linear_49_53" x1="117.348" y1="419.753" x2="117.348" y2="499.753" gradientUnits="userSpaceOnUse">
            <stop stop-color="#84DDFA"/>
            <stop offset="1" stop-color="#A7E9FF"/>
        </linearGradient>
        <linearGradient id="paint6_linear_49_53" x1="129.363" y1="523.057" x2="129.363" y2="603.057" gradientUnits="userSpaceOnUse">
            <stop stop-color="#84DDFA"/>
            <stop offset="1" stop-color="#A7E9FF"/>
        </linearGradient>
        <linearGradient id="paint7_linear_49_53" x1="141.378" y1="626.361" x2="141.378" y2="706.361" gradientUnits="userSpaceOnUse">
            <stop stop-color="#84DDFA"/>
            <stop offset="1" stop-color="#A7E9FF"/>
        </linearGradient>
        <linearGradient id="paint8_linear_49_53" x1="300.021" y1="293.806" x2="300.021" y2="373.806" gradientUnits="userSpaceOnUse">
            <stop stop-color="#84DDFA"/>
            <stop offset="1" stop-color="#A7E9FF"/>
        </linearGradient>
        <linearGradient id="paint9_linear_49_53" x1="312.036" y1="397.11" x2="312.036" y2="477.11" gradientUnits="userSpaceOnUse">
            <stop stop-color="#84DDFA"/>
            <stop offset="1" stop-color="#A7E9FF"/>
        </linearGradient>
        <linearGradient id="paint10_linear_49_53" x1="324.051" y1="500.414" x2="324.051" y2="580.414" gradientUnits="userSpaceOnUse">
            <stop stop-color="#84DDFA"/>
            <stop offset="1" stop-color="#A7E9FF"/>
        </linearGradient>
        <linearGradient id="paint11_linear_49_53" x1="336.065" y1="603.717" x2="336.065" y2="683.717" gradientUnits="userSpaceOnUse">
            <stop stop-color="#84DDFA"/>
            <stop offset="1" stop-color="#A7E9FF"/>
        </linearGradient>
        <linearGradient id="paint12_linear_49_53" x1="494.708" y1="271.163" x2="494.708" y2="351.163" gradientUnits="userSpaceOnUse">
            <stop stop-color="#84DDFA"/>
            <stop offset="1" stop-color="#A7E9FF"/>
        </linearGradient>
        <linearGradient id="paint13_linear_49_53" x1="506.723" y1="374.467" x2="506.723" y2="454.467" gradientUnits="userSpaceOnUse">
            <stop stop-color="#84DDFA"/>
            <stop offset="1" stop-color="#A7E9FF"/>
        </linearGradient>
        <linearGradient id="paint14_linear_49_53" x1="518.738" y1="477.77" x2="518.738" y2="557.77" gradientUnits="userSpaceOnUse">
            <stop stop-color="#84DDFA"/>
            <stop offset="1" stop-color="#A7E9FF"/>
        </linearGradient>
        <linearGradient id="paint15_linear_49_53" x1="530.753" y1="581.074" x2="530.753" y2="661.074" gradientUnits="userSpaceOnUse">
            <stop stop-color="#84DDFA"/>
            <stop offset="1" stop-color="#A7E9FF"/>
        </linearGradient>
        <linearGradient id="paint16_linear_49_53" x1="689.396" y1="248.52" x2="689.396" y2="328.52" gradientUnits="userSpaceOnUse">
            <stop stop-color="#84DDFA"/>
            <stop offset="1" stop-color="#A7E9FF"/>
        </linearGradient>
        <linearGradient id="paint17_linear_49_53" x1="701.411" y1="351.824" x2="701.411" y2="431.824" gradientUnits="userSpaceOnUse">
            <stop stop-color="#84DDFA"/>
            <stop offset="1" stop-color="#A7E9FF"/>
        </linearGradient>
        <linearGradient id="paint18_linear_49_53" x1="713.426" y1="455.127" x2="713.426" y2="535.127" gradientUnits="userSpaceOnUse">
            <stop stop-color="#84DDFA"/>
            <stop offset="1" stop-color="#A7E9FF"/>
        </linearGradient>
        <linearGradient id="paint19_linear_49_53" x1="725.441" y1="558.431" x2="725.441" y2="638.431" gradientUnits="userSpaceOnUse">
            <stop stop-color="#84DDFA"/>
            <stop offset="1" stop-color="#A7E9FF"/>
        </linearGradient>
        <linearGradient id="paint20_linear_49_53" x1="202.677" y1="305.128" x2="202.677" y2="385.128" gradientUnits="userSpaceOnUse">
            <stop stop-color="#84DDFA"/>
            <stop offset="1" stop-color="#A7E9FF"/>
        </linearGradient>
        <linearGradient id="paint21_linear_49_53" x1="214.692" y1="408.432" x2="214.692" y2="488.432" gradientUnits="userSpaceOnUse">
            <stop stop-color="#84DDFA"/>
            <stop offset="1" stop-color="#A7E9FF"/>
        </linearGradient>
        <linearGradient id="paint22_linear_49_53" x1="226.707" y1="511.735" x2="226.707" y2="591.735" gradientUnits="userSpaceOnUse">
            <stop stop-color="#84DDFA"/>
            <stop offset="1" stop-color="#A7E9FF"/>
        </linearGradient>
        <linearGradient id="paint23_linear_49_53" x1="238.722" y1="615.039" x2="238.722" y2="695.039" gradientUnits="userSpaceOnUse">
            <stop stop-color="#84DDFA"/>
            <stop offset="1" stop-color="#A7E9FF"/>
        </linearGradient>
        <linearGradient id="paint24_linear_49_53" x1="397.365" y1="282.485" x2="397.365" y2="362.485" gradientUnits="userSpaceOnUse">
            <stop stop-color="#84DDFA"/>
            <stop offset="1" stop-color="#A7E9FF"/>
        </linearGradient>
        <linearGradient id="paint25_linear_49_53" x1="409.38" y1="385.788" x2="409.38" y2="465.788" gradientUnits="userSpaceOnUse">
            <stop stop-color="#84DDFA"/>
            <stop offset="1" stop-color="#A7E9FF"/>
        </linearGradient>
        <linearGradient id="paint26_linear_49_53" x1="421.394" y1="489.092" x2="421.394" y2="569.092" gradientUnits="userSpaceOnUse">
            <stop stop-color="#84DDFA"/>
            <stop offset="1" stop-color="#A7E9FF"/>
        </linearGradient>
        <linearGradient id="paint27_linear_49_53" x1="433.409" y1="592.396" x2="433.409" y2="672.396" gradientUnits="userSpaceOnUse">
            <stop stop-color="#84DDFA"/>
            <stop offset="1" stop-color="#A7E9FF"/>
        </linearGradient>
        <linearGradient id="paint28_linear_49_53" x1="592.052" y1="259.842" x2="592.052" y2="339.842" gradientUnits="userSpaceOnUse">
            <stop stop-color="#84DDFA"/>
            <stop offset="1" stop-color="#A7E9FF"/>
        </linearGradient>
        <linearGradient id="paint29_linear_49_53" x1="604.067" y1="363.145" x2="604.067" y2="443.145" gradientUnits="userSpaceOnUse">
            <stop stop-color="#84DDFA"/>
            <stop offset="1" stop-color="#A7E9FF"/>
        </linearGradient>
        <linearGradient id="paint30_linear_49_53" x1="616.082" y1="466.449" x2="616.082" y2="546.449" gradientUnits="userSpaceOnUse">
            <stop stop-color="#84DDFA"/>
            <stop offset="1" stop-color="#A7E9FF"/>
        </linearGradient>
        <linearGradient id="paint31_linear_49_53" x1="628.097" y1="569.753" x2="628.097" y2="649.753" gradientUnits="userSpaceOnUse">
            <stop stop-color="#84DDFA"/>
            <stop offset="1" stop-color="#A7E9FF"/>
        </linearGradient>
        <clipPath id="clip0_49_53">
            <rect width="88.0134" height="120.522" fill="white" transform="translate(364.743 243.362) rotate(5.17287)"/>
        </clipPath>
        <clipPath id="clip1_49_53">
            <rect width="88.0134" height="120.522" fill="white" transform="translate(193.899 472.643) rotate(5.17287)"/>
        </clipPath>
        <clipPath id="clip2_49_53">
            <rect width="88.0134" height="120.522" fill="white" transform="translate(595.289 530.66) rotate(5.17287)"/>
        </clipPath>
    </defs>
</svg>
